<?xml version="1.0" standalone="no"?>
<!DOCTYPE svg PUBLIC "-//W3C//DTD SVG 20010904//EN"
 "http://www.w3.org/TR/2001/REC-SVG-20010904/DTD/svg10.dtd">
<svg version="1.0" xmlns="http://www.w3.org/2000/svg"
 width="481.000000pt" height="481.000000pt" viewBox="0 0 481.000000 481.000000"
 preserveAspectRatio="xMidYMid meet">
<metadata>
Created by potrace 1.14, written by Peter Selinger 2001-2017
</metadata>
<g transform="translate(0.000000,481.000000) scale(0.100000,-0.100000)"
fill="#000000" stroke="none">
<path d="M2325 4749 c-90 -51 -147 -82 -240 -134 -27 -15 -63 -35 -80 -45 -16
-9 -55 -31 -85 -47 -83 -45 -148 -82 -222 -124 -36 -22 -69 -39 -72 -39 -4 0
-23 -10 -44 -23 -20 -13 -68 -41 -107 -62 -38 -21 -119 -66 -180 -100 -60 -34
-135 -75 -165 -92 -30 -17 -156 -86 -280 -155 -124 -69 -247 -138 -275 -153
-27 -15 -63 -35 -80 -45 -16 -10 -55 -31 -85 -48 -30 -16 -70 -38 -87 -48
l-33 -19 0 -1206 0 -1205 72 -41 c40 -23 90 -50 111 -62 20 -12 52 -29 70 -39
17 -10 52 -30 77 -44 25 -14 108 -61 185 -105 77 -44 165 -94 195 -110 30 -17
95 -54 143 -82 49 -28 91 -51 93 -51 2 0 23 -12 46 -26 23 -14 60 -36 82 -48
54 -30 134 -75 171 -97 17 -10 44 -25 60 -34 17 -8 37 -19 45 -24 36 -23 171
-101 174 -101 2 0 62 -33 133 -74 70 -40 144 -82 163 -92 19 -11 97 -55 172
-98 l138 -78 152 87 c173 99 162 93 358 205 80 45 161 92 180 102 19 11 64 37
100 58 36 21 83 48 105 60 22 12 150 86 285 163 135 77 259 148 275 157 17 9
95 54 175 100 80 46 154 88 165 94 11 6 86 49 168 95 l147 83 0 1207 0 1207
-37 21 c-21 12 -56 31 -78 43 -22 13 -60 34 -85 48 -25 14 -94 53 -155 87
-162 91 -206 116 -250 140 -22 13 -146 82 -275 156 -129 73 -287 161 -350 197
-63 35 -133 74 -155 86 -22 13 -67 38 -100 56 -33 18 -105 59 -160 90 -55 31
-122 70 -150 85 -98 54 -221 123 -265 149 -25 14 -47 26 -50 25 -3 0 -45 -22
-95 -50z"/>
</g>
</svg>
